<?xml version="1.0" encoding="UTF-8" standalone="no"?>
<svg xmlns:dc="http://purl.org/dc/elements/1.1/" xmlns:cc="http://creativecommons.org/ns#" xmlns:rdf="http://www.w3.org/1999/02/22-rdf-syntax-ns#" xmlns:svg="http://www.w3.org/2000/svg" xmlns="http://www.w3.org/2000/svg" xmlns:sodipodi="http://sodipodi.sourceforge.net/DTD/sodipodi-0.dtd" xmlns:inkscape="http://www.inkscape.org/namespaces/inkscape" viewBox="0 0 9.0311117 1.4109616" id="svg2" version="1.1" inkscape:version="0.91+devel r" sodipodi:docname="dealwithit.svg" inkscape:export-filename="/home/hellocatfood/Desktop/Portrait of Lord Hannay/dealwithit.png" inkscape:export-xdpi="3000" inkscape:export-ydpi="3000">
  <metadata id="metadata215">
    <rdf:RDF>
      <cc:Work rdf:about="">
        <dc:format>image/svg+xml</dc:format>
        <dc:type rdf:resource="http://purl.org/dc/dcmitype/StillImage"/>
        <dc:title/>
      </cc:Work>
    </rdf:RDF>
  </metadata>
  <defs id="defs213"/>
  <sodipodi:namedview pagecolor="#ffffff" bordercolor="#666666" borderopacity="1" objecttolerance="10" gridtolerance="10" guidetolerance="10" inkscape:pageopacity="0" inkscape:pageshadow="2" inkscape:window-width="1863" inkscape:window-height="1056" id="namedview211" showgrid="false" inkscape:zoom="32" inkscape:cx="16.309744" inkscape:cy="0.83251169" inkscape:window-x="57" inkscape:window-y="24" inkscape:window-maximized="1" inkscape:current-layer="svg2" inkscape:snap-bbox="true" inkscape:bbox-paths="true" inkscape:bbox-nodes="true" inkscape:snap-bbox-edge-midpoints="true" inkscape:object-paths="true" inkscape:snap-intersection-paths="true" inkscape:object-nodes="true" fit-margin-top="0" fit-margin-left="0" fit-margin-right="0" fit-margin-bottom="0"/>
  <path inkscape:connector-curvature="0" id="path4651" d="m 0,0.28215211 0.28222224,0 0,0.28222225 -0.28222224,0 z" style="fill-rule:evenodd"/>
  <path style="fill-rule:evenodd" d="m 0.28222224,0.28215211 0.28222225,0 0,0.28222225 -0.28222225,0 z" id="path4653" inkscape:connector-curvature="0"/>
  <path inkscape:connector-curvature="0" id="path4655" d="m 0.56444449,-7.0113081e-5 0.28222224,0 0,0.282222223081 -0.28222224,0 z" style="fill-rule:evenodd"/>
  <path style="fill-rule:evenodd" d="m 0.84666673,-7.0113081e-5 0.28222227,0 0,0.282222223081 -0.28222227,0 z" id="path4657" inkscape:connector-curvature="0"/>
  <path style="fill-rule:evenodd" d="m 1.128889,-7.0113081e-5 0.2822222,0 0,0.282222223081 -0.2822222,0 z" id="path4659" inkscape:connector-curvature="0"/>
  <path inkscape:connector-curvature="0" id="path4661" d="m 1.4111112,-7.0113081e-5 0.2822223,0 0,0.282222223081 -0.2822223,0 z" style="fill-rule:evenodd"/>
  <path style="fill-rule:evenodd" d="m 1.6933335,-7.0113081e-5 0.2822222,0 0,0.282222223081 -0.2822222,0 z" id="path4663" inkscape:connector-curvature="0"/>
  <path inkscape:connector-curvature="0" id="path4665" d="m 1.9755557,-7.0113081e-5 0.2822222,0 0,0.282222223081 -0.2822222,0 z" style="fill-rule:evenodd"/>
  <path inkscape:connector-curvature="0" id="path4667" d="m 2.2577779,-7.0113081e-5 0.2822223,0 0,0.282222223081 -0.2822223,0 z" style="fill-rule:evenodd"/>
  <path style="fill-rule:evenodd" d="m 2.5400002,-7.0113081e-5 0.2822222,0 0,0.282222223081 -0.2822222,0 z" id="path4669" inkscape:connector-curvature="0"/>
  <path style="fill-rule:evenodd" d="m 2.8222224,-7.0113081e-5 0.2822223,0 0,0.282222223081 -0.2822223,0 z" id="path4671" inkscape:connector-curvature="0"/>
  <path inkscape:connector-curvature="0" id="path4673" d="m 3.1044447,-7.0113081e-5 0.2822222,0 0,0.282222223081 -0.2822222,0 z" style="fill-rule:evenodd"/>
  <path inkscape:connector-curvature="0" id="path4675" d="m 3.3866669,-7.0113081e-5 0.2822223,0 0,0.282222223081 -0.2822223,0 z" style="fill-rule:evenodd"/>
  <path style="fill-rule:evenodd" d="m 3.6688892,-7.0113081e-5 0.2822222,0 0,0.282222223081 -0.2822222,0 z" id="path4677" inkscape:connector-curvature="0"/>
  <path inkscape:connector-curvature="0" id="path4679" d="m 3.9511114,-7.0113081e-5 0.2822223,0 0,0.282222223081 -0.2822223,0 z" style="fill-rule:evenodd"/>
  <path style="fill-rule:evenodd" d="m 4.2333337,-7.0113081e-5 0.2822222,0 0,0.282222223081 -0.2822222,0 z" id="path4681" inkscape:connector-curvature="0"/>
  <path style="fill-rule:evenodd" d="m 4.5155559,-7.0113081e-5 0.2822222,0 0,0.282222223081 -0.2822222,0 z" id="path4683" inkscape:connector-curvature="0"/>
  <path inkscape:connector-curvature="0" id="path4685" d="m 4.7977781,-7.0113081e-5 0.2822223,0 0,0.282222223081 -0.2822223,0 z" style="fill-rule:evenodd"/>
  <path style="fill-rule:evenodd" d="m 5.0800004,-7.0113081e-5 0.2822222,0 0,0.282222223081 -0.2822222,0 z" id="path4687" inkscape:connector-curvature="0"/>
  <path inkscape:connector-curvature="0" id="path4689" d="m 5.3622226,-7.0113081e-5 0.2822223,0 0,0.282222223081 -0.2822223,0 z" style="fill-rule:evenodd"/>
  <path inkscape:connector-curvature="0" id="path4691" d="m 5.6444449,-7.0113081e-5 0.2822222,0 0,0.282222223081 -0.2822222,0 z" style="fill-rule:evenodd"/>
  <path style="fill-rule:evenodd" d="m 5.9266671,-7.0113081e-5 0.2822223,0 0,0.282222223081 -0.2822223,0 z" id="path4693" inkscape:connector-curvature="0"/>
  <path inkscape:connector-curvature="0" id="path4695" d="m 6.2088894,-7.0113081e-5 0.2822222,0 0,0.282222223081 -0.2822222,0 z" style="fill-rule:evenodd"/>
  <path style="fill-rule:evenodd" d="m 6.4911116,-7.0113081e-5 0.2822223,0 0,0.282222223081 -0.2822223,0 z" id="path4697" inkscape:connector-curvature="0"/>
  <path style="fill-rule:evenodd" d="m 6.7733339,-7.0113081e-5 0.2822222,0 0,0.282222223081 -0.2822222,0 z" id="path4699" inkscape:connector-curvature="0"/>
  <path inkscape:connector-curvature="0" id="path4701" d="m 7.0555561,-7.0113081e-5 0.2822222,0 0,0.282222223081 -0.2822222,0 z" style="fill-rule:evenodd"/>
  <path inkscape:connector-curvature="0" id="path4703" d="m 7.3377783,-7.0113081e-5 0.2822223,0 0,0.282222223081 -0.2822223,0 z" style="fill-rule:evenodd"/>
  <path style="fill-rule:evenodd" d="m 7.6200006,-7.0113081e-5 0.2822222,0 0,0.282222223081 -0.2822222,0 z" id="path4705" inkscape:connector-curvature="0"/>
  <path style="fill-rule:evenodd" d="m 7.9022228,-7.0113081e-5 0.2822223,0 0,0.282222223081 -0.2822223,0 z" id="path4707" inkscape:connector-curvature="0"/>
  <path inkscape:connector-curvature="0" id="path4709" d="m 8.1844451,-7.0113081e-5 0.2822222,0 0,0.282222223081 -0.2822222,0 z" style="fill-rule:evenodd"/>
  <path style="fill-rule:evenodd" d="m 8.4666673,-7.0113081e-5 0.2822223,0 0,0.282222223081 -0.2822223,0 z" id="path4711" inkscape:connector-curvature="0"/>
  <path inkscape:connector-curvature="0" id="path4713" d="m 8.7488896,-7.0113081e-5 0.2822222,0 0,0.282222223081 -0.2822222,0 z" style="fill-rule:evenodd"/>
  <path style="fill-rule:evenodd" d="m 2.2577779,0.28215211 0.2822223,0 0,0.28222225 -0.2822223,0 z" id="path4719" inkscape:connector-curvature="0"/>
  <path inkscape:connector-curvature="0" id="path4721" d="m 2.5400002,0.28215211 0.2822222,0 0,0.28222225 -0.2822222,0 z" style="fill-rule:evenodd"/>
  <path inkscape:connector-curvature="0" id="path4723" d="m 2.8222224,0.28215211 0.2822223,0 0,0.28222225 -0.2822223,0 z" style="fill:#696969;fill-opacity:1;fill-rule:evenodd"/>
  <path style="fill-rule:evenodd" d="m 3.1044447,0.28215211 0.2822222,0 0,0.28222225 -0.2822222,0 z" id="path4725" inkscape:connector-curvature="0"/>
  <path style="fill:#696969;fill-opacity:1;fill-rule:evenodd" d="m 3.3866669,0.28215211 0.2822223,0 0,0.28222225 -0.2822223,0 z" id="path4727" inkscape:connector-curvature="0"/>
  <path inkscape:connector-curvature="0" id="path4729" d="m 3.6688892,0.28215211 0.2822222,0 0,0.28222225 -0.2822222,0 z" style="fill-rule:evenodd"/>
  <path style="fill-rule:evenodd" d="m 3.9511114,0.28215211 0.2822223,0 0,0.28222225 -0.2822223,0 z" id="path4731" inkscape:connector-curvature="0"/>
  <path inkscape:connector-curvature="0" id="path4733" d="m 4.2333337,0.28215211 0.2822222,0 0,0.28222225 -0.2822222,0 z" style="fill-rule:evenodd"/>
  <path inkscape:connector-curvature="0" id="path4735" d="m 4.5155559,0.28215211 0.2822222,0 0,0.28222225 -0.2822222,0 z" style="fill-rule:evenodd"/>
  <path style="fill-rule:evenodd" d="m 4.7977781,0.28215211 0.2822223,0 0,0.28222225 -0.2822223,0 z" id="path4737" inkscape:connector-curvature="0"/>
  <path inkscape:connector-curvature="0" id="path4739" d="m 5.0800004,0.28215211 0.2822222,0 0,0.28222225 -0.2822222,0 z" style="fill-rule:evenodd"/>
  <path style="fill-rule:evenodd" d="m 5.3622226,0.28215211 0.2822223,0 0,0.28222225 -0.2822223,0 z" id="path4741" inkscape:connector-curvature="0"/>
  <path inkscape:connector-curvature="0" id="path4745" d="m 5.9266671,0.28215211 0.2822223,0 0,0.28222225 -0.2822223,0 z" style="fill-rule:evenodd"/>
  <path style="fill-rule:evenodd" d="m 6.2088894,0.28215211 0.2822222,0 0,0.28222225 -0.2822222,0 z" id="path4747" inkscape:connector-curvature="0"/>
  <path inkscape:connector-curvature="0" id="path4749" d="m 6.4911116,0.28215211 0.2822223,0 0,0.28222225 -0.2822223,0 z" style="fill:#696969;fill-opacity:1;fill-rule:evenodd"/>
  <path inkscape:connector-curvature="0" id="path4751" d="m 6.7733339,0.28215211 0.2822222,0 0,0.28222225 -0.2822222,0 z" style="fill-rule:evenodd"/>
  <path style="fill:#696969;fill-opacity:1;fill-rule:evenodd" d="m 7.0555561,0.28215211 0.2822222,0 0,0.28222225 -0.2822222,0 z" id="path4753" inkscape:connector-curvature="0"/>
  <path style="fill-rule:evenodd" d="m 7.3377783,0.28215211 0.2822223,0 0,0.28222225 -0.2822223,0 z" id="path4755" inkscape:connector-curvature="0"/>
  <path inkscape:connector-curvature="0" id="path4757" d="m 7.6200006,0.28215211 0.2822222,0 0,0.28222225 -0.2822222,0 z" style="fill-rule:evenodd"/>
  <path inkscape:connector-curvature="0" id="path4759" d="m 7.9022228,0.28215211 0.2822223,0 0,0.28222225 -0.2822223,0 z" style="fill-rule:evenodd"/>
  <path style="fill-rule:evenodd" d="m 8.1844451,0.28215211 0.2822222,0 0,0.28222225 -0.2822222,0 z" id="path4761" inkscape:connector-curvature="0"/>
  <path inkscape:connector-curvature="0" id="path4763" d="m 8.4666673,0.28215211 0.2822223,0 0,0.28222225 -0.2822223,0 z" style="fill-rule:evenodd"/>
  <path style="fill-rule:evenodd" d="m 8.7488896,0.28215211 0.2822222,0 0,0.28222225 -0.2822222,0 z" id="path4765" inkscape:connector-curvature="0"/>
  <path style="fill-rule:evenodd" d="m 2.5400002,0.56437436 0.2822222,0 0,0.28222224 -0.2822222,0 z" id="path4767" inkscape:connector-curvature="0"/>
  <path style="fill-rule:evenodd" d="m 2.8222224,0.56437436 0.2822223,0 0,0.28222224 -0.2822223,0 z" id="path4769" inkscape:connector-curvature="0"/>
  <path inkscape:connector-curvature="0" id="path4771" d="m 3.1044447,0.56437436 0.2822222,0 0,0.28222224 -0.2822222,0 z" style="fill:#696969;fill-opacity:1;fill-rule:evenodd"/>
  <path inkscape:connector-curvature="0" id="path4773" d="m 3.3866669,0.56437436 0.2822223,0 0,0.28222224 -0.2822223,0 z" style="fill-rule:evenodd"/>
  <path style="fill:#696969;fill-opacity:1;fill-rule:evenodd" d="m 3.6688892,0.56437436 0.2822222,0 0,0.28222224 -0.2822222,0 z" id="path4775" inkscape:connector-curvature="0"/>
  <path inkscape:connector-curvature="0" id="path4777" d="m 3.9511114,0.56437436 0.2822223,0 0,0.28222224 -0.2822223,0 z" style="fill-rule:evenodd"/>
  <path style="fill-rule:evenodd" d="m 4.2333337,0.56437436 0.2822222,0 0,0.28222224 -0.2822222,0 z" id="path4779" inkscape:connector-curvature="0"/>
  <path style="fill-rule:evenodd" d="m 4.5155559,0.56437436 0.2822222,0 0,0.28222224 -0.2822222,0 z" id="path4781" inkscape:connector-curvature="0"/>
  <path inkscape:connector-curvature="0" id="path4783" d="m 4.7977781,0.56437436 0.2822223,0 0,0.28222224 -0.2822223,0 z" style="fill-rule:evenodd"/>
  <path style="fill-rule:evenodd" d="m 5.0800004,0.56437436 0.2822222,0 0,0.28222224 -0.2822222,0 z" id="path4785" inkscape:connector-curvature="0"/>
  <path inkscape:connector-curvature="0" id="path4787" d="m 5.3622226,0.56437436 0.2822223,0 0,0.28222224 -0.2822223,0 z" style="fill-rule:evenodd"/>
  <path inkscape:connector-curvature="0" id="path4793" d="m 6.2088894,0.56437436 0.2822222,0 0,0.28222224 -0.2822222,0 z" style="fill-rule:evenodd"/>
  <path style="fill-rule:evenodd" d="m 6.4911116,0.56437436 0.2822223,0 0,0.28222224 -0.2822223,0 z" id="path4795" inkscape:connector-curvature="0"/>
  <path style="fill:#696969;fill-opacity:1;fill-rule:evenodd" d="m 6.7733339,0.56437436 0.2822222,0 0,0.28222224 -0.2822222,0 z" id="path4797" inkscape:connector-curvature="0"/>
  <path inkscape:connector-curvature="0" id="path4799" d="m 7.0555561,0.56437436 0.2822222,0 0,0.28222224 -0.2822222,0 z" style="fill-rule:evenodd"/>
  <path inkscape:connector-curvature="0" id="path4801" d="m 7.3377783,0.56437436 0.2822223,0 0,0.28222224 -0.2822223,0 z" style="fill:#696969;fill-opacity:1;fill-rule:evenodd"/>
  <path style="fill-rule:evenodd" d="m 7.6200006,0.56437436 0.2822222,0 0,0.28222224 -0.2822222,0 z" id="path4803" inkscape:connector-curvature="0"/>
  <path style="fill-rule:evenodd" d="m 7.9022228,0.56437436 0.2822223,0 0,0.28222224 -0.2822223,0 z" id="path4805" inkscape:connector-curvature="0"/>
  <path inkscape:connector-curvature="0" id="path4807" d="m 8.1844451,0.56437436 0.2822222,0 0,0.28222224 -0.2822222,0 z" style="fill-rule:evenodd"/>
  <path style="fill-rule:evenodd" d="m 8.4666673,0.56437436 0.2822223,0 0,0.28222224 -0.2822223,0 z" id="path4809" inkscape:connector-curvature="0"/>
  <path inkscape:connector-curvature="0" id="path4811" d="m 2.8222224,0.8465966 0.2822223,0 0,0.2822222 -0.2822223,0 z" style="fill-rule:evenodd"/>
  <path style="fill-rule:evenodd" d="m 3.1044447,0.8465966 0.2822222,0 0,0.2822222 -0.2822222,0 z" id="path4813" inkscape:connector-curvature="0"/>
  <path style="fill:#696969;fill-opacity:1;fill-rule:evenodd" d="m 3.3866669,0.8465966 0.2822223,0 0,0.2822222 -0.2822223,0 z" id="path4815" inkscape:connector-curvature="0"/>
  <path inkscape:connector-curvature="0" id="path4817" d="m 3.6688892,0.8465966 0.2822222,0 0,0.2822222 -0.2822222,0 z" style="fill-rule:evenodd"/>
  <path style="fill:#696969;fill-opacity:1;fill-rule:evenodd" d="m 3.9511114,0.8465966 0.2822223,0 0,0.2822222 -0.2822223,0 z" id="path4819" inkscape:connector-curvature="0"/>
  <path inkscape:connector-curvature="0" id="path4821" d="m 4.2333337,0.8465966 0.2822222,0 0,0.2822222 -0.2822222,0 z" style="fill-rule:evenodd"/>
  <path inkscape:connector-curvature="0" id="path4823" d="m 4.5155559,0.8465966 0.2822222,0 0,0.2822222 -0.2822222,0 z" style="fill-rule:evenodd"/>
  <path style="fill-rule:evenodd" d="m 4.7977781,0.8465966 0.2822223,0 0,0.2822222 -0.2822223,0 z" id="path4825" inkscape:connector-curvature="0"/>
  <path inkscape:connector-curvature="0" id="path4827" d="m 5.0800004,0.8465966 0.2822222,0 0,0.2822222 -0.2822222,0 z" style="fill-rule:evenodd"/>
  <path inkscape:connector-curvature="0" id="path4837" d="m 6.4911116,0.8465966 0.2822223,0 0,0.2822222 -0.2822223,0 z" style="fill-rule:evenodd"/>
  <path inkscape:connector-curvature="0" id="path4839" d="m 6.7733339,0.8465966 0.2822222,0 0,0.2822222 -0.2822222,0 z" style="fill-rule:evenodd"/>
  <path style="fill-rule:evenodd" d="m 7.0555561,0.8465966 0.2822222,0 0,0.2822222 -0.2822222,0 z" id="path4841" inkscape:connector-curvature="0"/>
  <path style="fill-rule:evenodd" d="m 7.3377783,0.8465966 0.2822223,0 0,0.2822222 -0.2822223,0 z" id="path4843" inkscape:connector-curvature="0"/>
  <path inkscape:connector-curvature="0" id="path4845" d="m 7.6200006,0.8465966 0.2822222,0 0,0.2822222 -0.2822222,0 z" style="fill-rule:evenodd"/>
  <path inkscape:connector-curvature="0" id="path4847" d="m 7.9022228,0.8465966 0.2822223,0 0,0.2822222 -0.2822223,0 z" style="fill-rule:evenodd"/>
  <path style="fill-rule:evenodd" d="m 8.1844451,0.8465966 0.2822222,0 0,0.2822222 -0.2822222,0 z" id="path4849" inkscape:connector-curvature="0"/>
  <path inkscape:connector-curvature="0" id="path4851" d="m 3.1044447,1.1288188 0.2822222,0 0,0.2822223 -0.2822222,0 z" style="fill-rule:evenodd"/>
  <path inkscape:connector-curvature="0" id="path4853" d="m 3.3866669,1.1288188 0.2822223,0 0,0.2822223 -0.2822223,0 z" style="fill-rule:evenodd"/>
  <path style="fill-rule:evenodd" d="m 3.6688892,1.1288188 0.2822222,0 0,0.2822223 -0.2822222,0 z" id="path4855" inkscape:connector-curvature="0"/>
  <path inkscape:connector-curvature="0" id="path4857" d="m 3.9511114,1.1288188 0.2822223,0 0,0.2822223 -0.2822223,0 z" style="fill-rule:evenodd"/>
  <path style="fill-rule:evenodd" d="m 4.2333337,1.1288188 0.2822222,0 0,0.2822223 -0.2822222,0 z" id="path4859" inkscape:connector-curvature="0"/>
  <path style="fill-rule:evenodd" d="m 4.5155559,1.1288188 0.2822222,0 0,0.2822223 -0.2822222,0 z" id="path4861" inkscape:connector-curvature="0"/>
  <path inkscape:connector-curvature="0" id="path4863" d="m 4.7977781,1.1288188 0.2822223,0 0,0.2822223 -0.2822223,0 z" style="fill-rule:evenodd"/>
</svg>
